<svg version="1.1" id="Layer_1" xmlns="http://www.w3.org/2000/svg" xmlns:xlink="http://www.w3.org/1999/xlink" x="0px" y="0px"
	 width="100%" viewBox="0 0 250 250" enable-background="new 0 0 250 250" xml:space="preserve">
<path fill="#FFFFFF" opacity="1.000000" stroke="none" 
	d="
M173.000000,251.000000 
	C115.333336,251.000000 58.166672,251.000000 1.000008,251.000000 
	C1.000005,167.666672 1.000005,84.333351 1.000003,1.000019 
	C84.333321,1.000013 167.666641,1.000013 250.999969,1.000006 
	C250.999969,84.333313 250.999969,167.666626 250.999985,250.999969 
	C225.166672,251.000000 199.333328,251.000000 173.000000,251.000000 
M173.210281,58.074394 
	C167.809814,57.195232 162.409332,56.316071 156.324203,55.135426 
	C136.518097,52.451141 116.721222,52.070267 96.039383,55.335487 
	C91.022804,56.258327 86.006218,57.181171 80.343239,58.028603 
	C79.548271,58.316334 78.753304,58.604065 77.130028,58.858349 
	C68.084923,61.568230 59.039818,64.278107 49.236164,67.025688 
	C46.457523,68.256691 42.170254,67.960083 43.033844,73.943100 
	C43.081898,83.290009 43.129951,92.636917 43.032398,102.711555 
	C46.107838,106.103500 43.108585,109.564987 43.022877,113.922699 
	C43.095463,122.942131 43.168045,131.961563 43.075905,141.867813 
	C43.412453,145.156540 43.528976,148.485489 44.121483,151.727448 
	C47.798073,171.844315 55.710629,189.963058 69.929901,205.804413 
	C82.259941,220.447968 97.596771,230.980698 114.501617,239.768524 
	C123.689186,244.544617 131.730148,244.735260 140.626373,238.669937 
	C141.291245,238.177643 141.956131,237.685364 143.293594,237.177353 
	C150.185822,232.752182 157.078049,228.327011 164.566818,223.782608 
	C165.131302,223.220139 165.695801,222.657669 166.877838,221.868042 
	C172.573792,216.212631 178.269760,210.557205 184.554581,204.609909 
	C190.010590,195.733017 195.466614,186.856125 201.401062,177.469330 
	C204.002869,168.340973 206.604675,159.212601 209.618729,149.426636 
	C209.919922,133.607056 210.221100,117.787483 210.720001,101.053703 
	C210.657501,91.719727 210.595001,82.385750 210.738480,72.351692 
	C210.478302,68.030136 206.940262,67.923264 203.389725,66.679359 
	C194.264069,64.108025 185.138428,61.536690 175.571213,58.632645 
	C175.039581,58.542683 174.507935,58.452724 173.210281,58.074394 
z"/>
<path fill="#4479C4" opacity="1.000000" stroke="none" 
	d="
M163.970306,223.901855 
	C157.078049,228.327011 150.185822,232.752182 142.599640,237.149994 
	C141.270615,237.652222 140.635544,238.181808 140.000488,238.711395 
	C131.730148,244.735260 123.689186,244.544617 114.501617,239.768524 
	C97.596771,230.980698 82.259941,220.447968 70.123322,205.295029 
	C71.628006,203.013107 72.939262,201.240585 74.541290,199.659973 
	C87.893730,214.900101 103.629204,226.256332 121.825615,234.361694 
	C125.354698,235.933670 128.214066,235.857010 131.673645,234.330719 
	C149.899292,226.289871 165.484787,214.715668 179.088898,199.953156 
	C180.953629,201.634567 182.459686,203.268188 183.965729,204.901794 
	C178.269760,210.557205 172.573792,216.212631 166.229721,221.980759 
	C165.044495,222.696259 164.507401,223.299057 163.970306,223.901855 
z"/>
<path fill="#497CC5" opacity="1.000000" stroke="none" 
	d="
M74.250519,199.468063 
	C72.939262,201.240585 71.628006,203.013107 70.002609,204.975296 
	C55.710629,189.963058 47.798073,171.844315 44.121483,151.727448 
	C43.528976,148.485489 43.412453,145.156540 43.496971,141.476288 
	C45.353302,141.969040 46.788559,142.853317 48.624626,143.984543 
	C48.624626,132.057098 48.624626,120.797180 48.624626,108.574120 
	C46.337177,110.419914 44.743626,111.705788 43.150070,112.991661 
	C43.108585,109.564987 46.107838,106.103500 43.437401,102.394508 
	C45.382675,103.153900 46.922955,104.230339 48.996696,105.679604 
	C48.996696,96.838448 48.722855,88.621216 49.134075,80.438416 
	C49.294243,77.251251 50.997917,74.141663 52.265533,71.118477 
	C53.022541,71.829628 53.512539,72.419037 53.731888,73.290192 
	C52.482517,75.411934 50.673615,77.242859 50.653397,79.093338 
	C50.449703,97.740410 49.920570,116.419495 50.787186,135.028839 
	C51.276421,145.534485 53.537308,156.098450 56.193531,166.326218 
	C59.413216,178.723557 66.928886,189.121689 74.250519,199.468063 
z"/>
<path fill="#457AC4" opacity="1.000000" stroke="none" 
	d="
M96.939072,55.373108 
	C116.721222,52.070267 136.518097,52.451141 156.673248,55.681656 
	C158.685364,58.672005 160.348450,61.116123 161.607071,63.615425 
	C138.141876,59.813957 115.070152,60.305698 92.056732,63.182480 
	C93.727600,60.370628 95.333336,57.871868 96.939072,55.373108 
z"/>
<path fill="#4F80C6" opacity="1.000000" stroke="none" 
	d="
M210.522293,101.967911 
	C210.221100,117.787483 209.919922,133.607056 209.088470,149.605896 
	C206.436996,149.529984 204.315796,149.274796 202.124741,148.581360 
	C202.372650,141.696091 202.797195,135.252090 202.980911,128.801239 
	C203.207047,120.860809 203.232376,112.914658 203.698517,104.972549 
	C206.209122,103.972046 208.365707,102.969978 210.522293,101.967911 
z"/>
<path fill="#3871C1" opacity="1.000000" stroke="none" 
	d="
M210.621155,101.510803 
	C208.365707,102.969978 206.209122,103.972046 203.602448,104.514366 
	C203.032379,94.212517 202.912369,84.370407 202.788879,74.193199 
	C202.855652,72.573265 202.925873,71.288437 202.998245,70.001953 
	C203.000397,70.000305 203.003342,69.995476 203.221649,69.889511 
	C203.712433,69.586037 203.897308,69.326195 203.997284,69.002228 
	C204.000000,69.000420 204.002518,68.995201 204.340881,69.027390 
	C206.630310,70.390305 208.581406,71.721039 210.532501,73.051773 
	C210.595001,82.385750 210.657501,91.719727 210.621155,101.510803 
z"/>
<path fill="#477CC5" opacity="1.000000" stroke="none" 
	d="
M184.260162,204.755859 
	C182.459686,203.268188 180.953629,201.634567 179.210648,199.627319 
	C184.093811,191.175873 189.213882,183.098068 194.608093,175.017395 
	C195.247772,175.008865 195.613342,175.003204 196.275711,175.138565 
	C198.022552,176.179459 199.472580,177.079330 200.922607,177.979218 
	C195.466614,186.856125 190.010590,195.733017 184.260162,204.755859 
z"/>
<path fill="#4177C4" opacity="1.000000" stroke="none" 
	d="
M176.012772,58.965355 
	C185.138428,61.536690 194.264069,64.108025 203.687347,67.201248 
	C203.990829,68.147163 203.996674,68.571182 204.002518,68.995201 
	C204.002518,68.995201 204.000000,69.000420 203.780807,69.110329 
	C203.291626,69.418228 203.105545,69.676636 203.003342,69.995476 
	C203.003342,69.995476 203.000397,70.000305 202.713867,70.138123 
	C201.290268,71.166916 200.153214,72.057899 198.637085,72.937439 
	C189.512146,70.452988 180.766281,67.979973 172.015259,65.194801 
	C172.005508,64.258171 172.000931,63.633698 172.116913,62.724648 
	C172.825607,61.626232 173.413712,60.812397 174.303101,59.976311 
	C175.073853,59.624489 175.543320,59.294922 176.012772,58.965355 
z"/>
<path fill="#3D74C2" opacity="1.000000" stroke="none" 
	d="
M54.002541,73.008453 
	C53.512539,72.419037 53.022541,71.829628 52.145576,70.852974 
	C51.173531,69.976952 50.588444,69.488167 50.001537,68.664169 
	C49.998051,67.881958 49.996380,67.434975 49.994713,66.987991 
	C59.039818,64.278107 68.084923,61.568230 77.708344,59.137547 
	C78.857574,59.610909 79.428482,59.805073 79.999695,59.999619 
	C80.000000,60.000000 80.000992,60.001011 80.108475,60.220024 
	C80.414902,60.712250 80.675819,60.898804 80.999352,60.999352 
	C81.000000,61.000000 81.001274,61.001301 81.108688,61.220222 
	C81.414970,61.712234 81.675781,61.898705 81.999268,61.999275 
	C82.000000,62.000000 82.001213,62.001553 82.002686,62.406372 
	C82.033585,63.620842 82.063011,64.430496 81.777214,65.449539 
	C72.308846,68.108772 63.155693,70.558609 54.002541,73.008453 
z"/>
<path fill="#3E75C2" opacity="1.000000" stroke="none" 
	d="
M201.161835,177.724274 
	C199.472580,177.079330 198.022552,176.179459 196.264435,174.694992 
	C195.863739,173.524551 195.771118,172.938690 195.687561,171.992233 
	C197.862610,164.094299 200.028595,156.556946 202.194580,149.019608 
	C204.315796,149.274796 206.436996,149.529984 208.882355,149.934692 
	C206.604675,159.212601 204.002869,168.340973 201.161835,177.724274 
z"/>
<path fill="#3871C1" opacity="1.000000" stroke="none" 
	d="
M50.003357,68.999390 
	C50.588444,69.488167 51.173531,69.976952 51.878571,70.731232 
	C50.997917,74.141663 49.294243,77.251251 49.134075,80.438416 
	C48.722855,88.621216 48.996696,96.838448 48.996696,105.679604 
	C46.922955,104.230339 45.382675,103.153900 43.510201,102.030640 
	C43.129951,92.636917 43.081898,83.290009 43.434139,73.431717 
	C45.890743,71.613358 47.947048,70.306374 50.003357,68.999390 
z"/>
<path fill="#3871C1" opacity="1.000000" stroke="none" 
	d="
M43.086472,113.457184 
	C44.743626,111.705788 46.337177,110.419914 48.624626,108.574120 
	C48.624626,120.797180 48.624626,132.057098 48.624626,143.984543 
	C46.788559,142.853317 45.353302,141.969040 43.579338,141.032867 
	C43.168045,131.961563 43.095463,122.942131 43.086472,113.457184 
z"/>
<path fill="#3D74C2" opacity="1.000000" stroke="none" 
	d="
M96.489227,55.354298 
	C95.333336,57.871868 93.727600,60.370628 91.669800,63.328232 
	C88.814560,64.120857 86.411385,64.454636 83.974640,64.485489 
	C83.294456,63.455555 82.647835,62.728554 82.001213,62.001553 
	C82.001213,62.001553 82.000000,62.000000 81.891754,61.780449 
	C81.584610,61.287937 81.323860,61.101402 81.001274,61.001301 
	C81.001274,61.001301 81.000000,61.000000 80.891785,60.780441 
	C80.584549,60.287834 80.323685,60.101212 80.000992,60.001011 
	C80.000992,60.001011 80.000000,60.000000 80.100021,59.751095 
	C80.463242,59.036133 80.726440,58.570072 80.989639,58.104012 
	C86.006218,57.181171 91.022804,56.258327 96.489227,55.354298 
z"/>
<path fill="#3B73C2" opacity="1.000000" stroke="none" 
	d="
M174.001831,59.998566 
	C173.413712,60.812397 172.825607,61.626232 171.806900,62.758011 
	C170.924698,63.675392 170.473068,64.274826 169.638992,64.908981 
	C168.511475,64.791023 167.766434,64.638351 166.958939,64.236740 
	C166.268387,63.979763 165.640274,63.971714 164.630249,64.000259 
	C163.502731,63.877991 162.757126,63.719120 162.011536,63.560249 
	C160.348450,61.116123 158.685364,58.672005 157.015564,55.832397 
	C162.409332,56.316071 167.809814,57.195232 173.595245,58.491215 
	C173.987396,59.271545 173.994614,59.635059 174.001831,59.998566 
z"/>
<path fill="#497CC5" opacity="1.000000" stroke="none" 
	d="
M50.001537,68.664169 
	C47.947048,70.306374 45.890743,71.613358 43.502098,72.968544 
	C42.170254,67.960083 46.457523,68.256691 49.615440,67.006836 
	C49.996380,67.434975 49.998051,67.881958 50.001537,68.664169 
z"/>
<path fill="#4F80C6" opacity="1.000000" stroke="none" 
	d="
M204.340881,69.027390 
	C203.996674,68.571182 203.990829,68.147163 203.977173,67.405151 
	C206.940262,67.923264 210.478302,68.030136 210.635483,72.701736 
	C208.581406,71.721039 206.630310,70.390305 204.340881,69.027390 
z"/>
<path fill="#457AC4" opacity="1.000000" stroke="none" 
	d="
M80.666443,58.066307 
	C80.726440,58.570072 80.463242,59.036133 80.099716,59.750713 
	C79.428482,59.805073 78.857574,59.610909 78.122498,59.154270 
	C78.753304,58.604065 79.548271,58.316334 80.666443,58.066307 
z"/>
<path fill="#477CC5" opacity="1.000000" stroke="none" 
	d="
M140.313416,238.690674 
	C140.635544,238.181808 141.270615,237.652222 142.263336,237.157867 
	C141.956131,237.685364 141.291245,238.177643 140.313416,238.690674 
z"/>
<path fill="#477CC5" opacity="1.000000" stroke="none" 
	d="
M164.268555,223.842224 
	C164.507401,223.299057 165.044495,222.696259 165.920959,222.094330 
	C165.695801,222.657669 165.131302,223.220139 164.268555,223.842224 
z"/>
<path fill="#457AC4" opacity="1.000000" stroke="none" 
	d="
M174.303116,59.976311 
	C173.994614,59.635059 173.987396,59.271545 173.978241,58.635399 
	C174.507935,58.452724 175.039581,58.542683 175.791992,58.799004 
	C175.543320,59.294922 175.073853,59.624489 174.303116,59.976311 
z"/>
<path fill="#FBFDFE" opacity="1.000000" stroke="none" 
	d="
M161.607071,63.615425 
	C162.757126,63.719120 163.502731,63.877991 164.835052,64.185654 
	C165.954987,64.384850 166.488174,64.435265 167.021378,64.485680 
	C167.766434,64.638351 168.511475,64.791023 169.832397,65.111603 
	C170.945633,65.355324 171.483032,65.431145 172.020416,65.506958 
	C180.766281,67.979973 189.512146,70.452988 198.881012,73.179993 
	C200.600113,73.798759 201.696243,74.163528 202.792358,74.528305 
	C202.912369,84.370407 203.032379,94.212517 203.248444,104.512802 
	C203.232376,112.914658 203.207047,120.860809 202.980911,128.801239 
	C202.797195,135.252090 202.372650,141.696091 202.124741,148.581360 
	C200.028595,156.556946 197.862610,164.094299 195.433853,172.180817 
	C194.892044,173.493439 194.613007,174.256851 194.333969,175.020279 
	C189.213882,183.098068 184.093811,191.175873 178.851974,199.579514 
	C165.484787,214.715668 149.899292,226.289871 131.673645,234.330719 
	C128.214066,235.857010 125.354698,235.933670 121.825615,234.361694 
	C103.629204,226.256332 87.893730,214.900101 74.541290,199.659973 
	C66.928886,189.121689 59.413216,178.723557 56.193531,166.326218 
	C53.537308,156.098450 51.276421,145.534485 50.787186,135.028839 
	C49.920570,116.419495 50.449703,97.740410 50.653397,79.093338 
	C50.673615,77.242859 52.482517,75.411934 53.731888,73.290192 
	C63.155693,70.558609 72.308846,68.108772 82.112289,65.457321 
	C83.177788,65.099953 83.592995,64.944183 84.008202,64.788414 
	C86.411385,64.454636 88.814560,64.120857 91.604675,63.641323 
	C115.070152,60.305698 138.141876,59.813957 161.607071,63.615425 
M65.218285,177.605072 
	C65.814667,178.391251 66.411041,179.177444 67.351601,180.581284 
	C73.122398,184.825638 79.511124,184.526978 86.556488,183.182007 
	C86.704819,183.099106 86.853149,183.016220 87.816368,183.012939 
	C88.858871,182.759766 89.901367,182.506592 91.545334,182.484909 
	C92.366295,182.247803 93.187256,182.010681 94.768021,181.774185 
	C99.502144,180.155411 104.236259,178.536636 109.581764,176.908234 
	C109.902336,176.669083 110.222900,176.429916 111.257202,176.152893 
	C122.183914,170.473450 133.110626,164.793991 144.736328,158.997498 
	C162.491882,147.974854 179.100128,135.525162 191.670776,118.591896 
	C195.141098,113.917198 197.371887,108.182632 199.445099,102.661636 
	C200.734619,99.227577 199.530502,95.823029 195.707336,94.063797 
	C198.155502,99.121567 196.682785,103.963211 194.022079,107.779602 
	C189.020828,114.953201 183.874161,122.322815 177.454483,128.139114 
	C168.262634,136.467010 157.874344,143.474365 147.303818,151.226379 
	C133.677567,158.555923 120.117371,166.034119 104.265800,169.950485 
	C102.508095,170.664062 100.750389,171.377640 98.082985,171.959106 
	C91.508110,172.458664 85.169312,172.125183 80.101494,166.279358 
	C79.793228,165.744553 79.484962,165.209732 79.235435,163.885040 
	C78.720749,156.924591 82.178932,151.426758 86.072006,146.238022 
	C89.523178,141.638245 93.405579,137.362000 97.736572,132.178162 
	C95.680466,133.649323 94.508301,134.548599 93.277664,135.359100 
	C82.300491,142.588699 73.798515,152.046356 67.167976,164.161652 
	C66.514191,168.438004 65.860397,172.714371 65.218285,177.605072 
M149.404190,144.524460 
	C150.015518,142.740982 150.626862,140.957504 151.658859,138.568176 
	C155.632950,125.269966 159.164810,111.883240 160.329803,96.592270 
	C157.258224,100.667564 155.112488,103.743042 152.734299,106.626823 
	C145.671768,115.190796 137.131424,121.235664 125.489250,120.726631 
	C120.553268,120.510811 115.666786,119.211899 110.752525,118.438820 
	C103.404633,117.282913 96.349770,117.734451 88.997200,122.640007 
	C97.288818,122.455124 103.144562,125.865135 107.982285,130.688889 
	C112.376755,135.070694 116.027939,140.197952 119.937408,145.668289 
	C120.272346,146.469086 120.607285,147.269897 121.103203,148.807251 
	C122.220192,152.425262 123.337181,156.043289 124.659760,160.327194 
	C131.692642,156.467285 138.487930,152.859589 145.135239,148.997284 
	C146.651031,148.116547 147.655563,146.355896 149.404190,144.524460 
M143.527420,102.891113 
	C143.147766,98.368614 143.352631,93.692657 142.217346,89.368538 
	C141.167770,85.370766 141.820328,82.832428 145.099243,80.515877 
	C147.475204,78.837265 149.567459,76.757118 152.833206,73.958969 
	C141.406860,73.252792 131.352554,72.617508 121.295120,72.036644 
	C120.503853,71.990936 119.521690,72.085793 118.913216,72.517235 
	C110.569435,78.433418 102.275795,84.420319 93.695915,90.586708 
	C97.545380,92.023155 100.686066,93.195122 104.247887,94.524246 
	C104.143074,94.609962 105.300331,93.163673 105.789978,93.362389 
	C106.977905,93.844505 108.220352,94.911789 108.789421,96.064796 
	C110.517639,99.566322 111.728683,103.328018 113.520187,106.792366 
	C117.270561,114.044762 122.684784,117.142014 130.066803,116.120499 
	C137.300613,115.119499 141.582413,110.663231 143.527420,102.891113 
M136.048996,177.589096 
	C137.836563,173.617447 139.624130,169.645813 142.005371,164.355118 
	C138.947708,166.001541 137.449692,167.093765 135.774002,167.661682 
	C127.970955,170.306198 123.993576,174.957825 124.179520,183.888260 
	C124.317535,190.516769 122.085411,197.194641 120.909027,203.850540 
	C121.276901,204.033035 121.644768,204.215546 122.012642,204.398056 
	C126.596947,195.692947 131.181259,186.987839 136.048996,177.589096 
M99.456886,130.907745 
	C99.456886,130.907745 99.392235,130.976227 99.392235,130.976227 
	C99.392235,130.976227 99.457489,131.043457 99.456886,130.907745 
z"/>
<path fill="#4F80C6" opacity="1.000000" stroke="none" 
	d="
M202.788879,74.193192 
	C201.696243,74.163528 200.600113,73.798759 199.260071,73.191437 
	C200.153214,72.057899 201.290268,71.166916 202.711716,70.139771 
	C202.925873,71.288437 202.855652,72.573265 202.788879,74.193192 
z"/>
<path fill="#4F80C6" opacity="1.000000" stroke="none" 
	d="
M203.221649,69.889511 
	C203.105545,69.676636 203.291626,69.418228 203.778107,69.112137 
	C203.897308,69.326195 203.712433,69.586037 203.221649,69.889511 
z"/>
<path fill="#4F80C6" opacity="1.000000" stroke="none" 
	d="
M194.608093,175.017395 
	C194.613007,174.256851 194.892044,173.493439 195.424805,172.541412 
	C195.771118,172.938690 195.863739,173.524551 195.967621,174.553986 
	C195.613342,175.003204 195.247772,175.008865 194.608093,175.017395 
z"/>
<path fill="#457AC4" opacity="1.000000" stroke="none" 
	d="
M172.015259,65.194794 
	C171.483032,65.431145 170.945633,65.355324 170.214844,65.076889 
	C170.473068,64.274826 170.924698,63.675392 171.686325,63.042587 
	C172.000931,63.633698 172.005508,64.258171 172.015259,65.194794 
z"/>
<path fill="#457AC4" opacity="1.000000" stroke="none" 
	d="
M83.974640,64.485489 
	C83.592995,64.944183 83.177788,65.099953 82.427505,65.247932 
	C82.063011,64.430496 82.033585,63.620842 82.002686,62.406372 
	C82.647835,62.728554 83.294456,63.455555 83.974640,64.485489 
z"/>
<path fill="#457AC4" opacity="1.000000" stroke="none" 
	d="
M80.108475,60.220024 
	C80.323685,60.101212 80.584549,60.287834 80.891144,60.779793 
	C80.675819,60.898804 80.414902,60.712250 80.108475,60.220024 
z"/>
<path fill="#457AC4" opacity="1.000000" stroke="none" 
	d="
M81.108688,61.220222 
	C81.323860,61.101402 81.584610,61.287937 81.891022,61.779724 
	C81.675781,61.898705 81.414970,61.712234 81.108688,61.220222 
z"/>
<path fill="#457AC4" opacity="1.000000" stroke="none" 
	d="
M166.958939,64.236740 
	C166.488174,64.435265 165.954987,64.384850 165.216980,64.149055 
	C165.640274,63.971714 166.268387,63.979763 166.958939,64.236740 
z"/>
<path fill="#3D74C2" opacity="1.000000" stroke="none" 
	d="
M143.422150,103.273468 
	C141.582413,110.663231 137.300613,115.119499 130.066803,116.120499 
	C122.684784,117.142014 117.270561,114.044762 113.520187,106.792366 
	C111.728683,103.328018 110.517639,99.566322 108.789421,96.064796 
	C108.220352,94.911789 106.977905,93.844505 105.789978,93.362389 
	C105.300331,93.163673 104.143074,94.609962 104.247887,94.524246 
	C100.686066,93.195122 97.545380,92.023155 93.695915,90.586708 
	C102.275795,84.420319 110.569435,78.433418 118.913216,72.517235 
	C119.521690,72.085793 120.503853,71.990936 121.295120,72.036644 
	C131.352554,72.617508 141.406860,73.252792 152.833206,73.958969 
	C149.567459,76.757118 147.475204,78.837265 145.099243,80.515877 
	C141.820328,82.832428 141.167770,85.370766 142.217346,89.368538 
	C143.352631,93.692657 143.147766,98.368614 143.422150,103.273468 
z"/>
<path fill="#3F75C2" opacity="1.000000" stroke="none" 
	d="
M120.006798,144.996567 
	C116.027939,140.197952 112.376755,135.070694 107.982285,130.688889 
	C103.144562,125.865135 97.288818,122.455124 88.997200,122.640007 
	C96.349770,117.734451 103.404633,117.282913 110.752525,118.438820 
	C115.666786,119.211899 120.553268,120.510811 125.489250,120.726631 
	C137.131424,121.235664 145.671768,115.190796 152.734299,106.626823 
	C155.112488,103.743042 157.258224,100.667564 160.329803,96.592270 
	C159.164810,111.883240 155.632950,125.269966 151.041321,138.836334 
	C146.657455,140.195465 142.514938,136.442520 138.631378,139.997208 
	C137.911545,139.996704 137.500198,139.995392 136.907318,139.741241 
	C135.317856,139.488403 133.909943,139.488403 132.186020,139.488403 
	C131.760010,141.298416 131.321121,143.163193 130.610565,145.020279 
	C129.976715,145.019928 129.614502,145.027267 129.213684,144.655945 
	C129.134933,143.519699 129.094818,142.762100 129.314911,141.776688 
	C129.339233,140.751785 129.103333,139.954697 128.867447,139.157623 
	C127.563797,139.628937 126.086479,139.854919 124.995758,140.627029 
	C123.201050,141.897461 121.656700,143.521561 120.006798,144.996567 
z"/>
<path fill="#1AB4EF" opacity="1.000000" stroke="none" 
	d="
M147.996918,151.045593 
	C157.874344,143.474365 168.262634,136.467010 177.454483,128.139114 
	C183.874161,122.322815 189.020828,114.953201 194.022079,107.779602 
	C196.682785,103.963211 198.155502,99.121567 195.707336,94.063797 
	C199.530502,95.823029 200.734619,99.227577 199.445099,102.661636 
	C197.371887,108.182632 195.141098,113.917198 191.670776,118.591896 
	C179.100128,135.525162 162.491882,147.974854 144.405060,158.697754 
	C145.381500,155.947189 146.689209,153.496384 147.996918,151.045593 
z"/>
<path fill="#10B2F0" opacity="1.000000" stroke="none" 
	d="
M147.650360,151.135986 
	C146.689209,153.496384 145.381500,155.947189 144.055573,158.756256 
	C133.110626,164.793991 122.183914,170.473450 110.514252,176.112396 
	C109.513054,176.048126 109.254814,176.024353 108.998283,176.000275 
	C109.000000,176.000000 108.999420,176.003204 108.978905,175.705994 
	C108.641373,174.940811 108.324356,174.472809 108.003677,174.002411 
	C108.000023,174.000000 107.996033,173.992065 107.889053,173.775726 
	C107.585068,173.289551 107.327209,173.104523 107.004395,173.002045 
	C107.000282,172.999802 106.995705,172.991455 106.888512,172.775223 
	C106.584076,172.289261 106.325974,172.104584 105.754150,171.998993 
	C105.332718,171.988510 105.164154,171.983963 104.997787,171.653198 
	C105.001968,170.891739 105.003967,170.456543 105.005966,170.021332 
	C120.117371,166.034119 133.677567,158.555923 147.650360,151.135986 
z"/>
<path fill="#4277C3" opacity="1.000000" stroke="none" 
	d="
M129.252304,145.034592 
	C129.614502,145.027267 129.976715,145.019928 130.961212,144.979401 
	C132.524887,143.842438 133.466248,142.738678 134.388748,141.657028 
	C135.004929,142.948303 135.534073,144.057190 136.610733,146.313446 
	C136.844437,143.224609 136.966644,141.609329 137.088867,139.994064 
	C137.500198,139.995392 137.911545,139.996704 138.787506,140.292801 
	C142.466553,142.058456 145.680969,143.529343 148.895401,145.000229 
	C147.655563,146.355896 146.651031,148.116547 145.135239,148.997284 
	C138.487930,152.859589 131.692642,156.467285 124.659760,160.327194 
	C123.337181,156.043289 122.220192,152.425262 121.109802,148.072861 
	C123.413277,146.547318 125.710152,145.756149 128.317566,144.996521 
	C128.836166,145.030212 129.044235,145.032410 129.252304,145.034592 
z"/>
<path fill="#4479C4" opacity="1.000000" stroke="none" 
	d="
M135.907288,177.935913 
	C131.181259,186.987839 126.596947,195.692947 122.012642,204.398056 
	C121.644768,204.215546 121.276901,204.033035 120.909027,203.850540 
	C122.085411,197.194641 124.317535,190.516769 124.179520,183.888260 
	C123.993576,174.957825 127.970955,170.306198 135.774002,167.661682 
	C137.449692,167.093765 138.947708,166.001541 142.005371,164.355118 
	C139.624130,169.645813 137.836563,173.617447 135.907288,177.935913 
z"/>
<path fill="#0FB1F0" opacity="1.000000" stroke="none" 
	d="
M67.714218,163.688385 
	C73.798515,152.046356 82.300491,142.588699 93.277664,135.359100 
	C94.508301,134.548599 95.680466,133.649323 97.736572,132.178162 
	C93.405579,137.362000 89.523178,141.638245 86.072006,146.238022 
	C82.178932,151.426758 78.720749,156.924591 79.047256,164.564697 
	C78.239555,165.828461 77.620041,166.412598 77.000267,166.998367 
	C77.000000,167.000000 76.996841,167.000168 76.778885,167.108643 
	C76.289093,167.416092 76.102150,167.676102 76.000046,167.998566 
	C76.000000,168.000000 75.996857,168.000076 75.725624,168.104523 
	C73.971764,167.474030 72.489143,166.739090 71.003258,166.002075 
	C71.000000,166.000000 70.996109,165.992874 70.888641,165.776550 
	C70.583847,165.290421 70.325859,165.105011 70.003677,165.001984 
	C70.000130,165.000000 69.995270,164.993607 69.831406,164.752213 
	C69.122070,164.350296 68.576607,164.189774 67.948456,163.947266 
	C67.865761,163.865265 67.714218,163.688385 67.714218,163.688385 
z"/>
<path fill="#02AEEF" opacity="1.000000" stroke="none" 
	d="
M80.217804,166.896332 
	C85.169312,172.125183 91.508110,172.458664 98.502632,172.363434 
	C96.262810,175.929642 93.603340,179.091537 90.943871,182.253418 
	C89.901367,182.506592 88.858871,182.759766 87.299255,182.762787 
	C86.577728,182.255569 86.317017,182.084091 86.000000,181.999084 
	C86.000000,182.000000 86.001717,182.000565 85.967674,181.655869 
	C83.915665,179.002823 81.767242,176.793259 79.920723,174.355072 
	C78.424454,172.379364 77.291153,170.128754 75.996857,168.000076 
	C75.996857,168.000076 76.000000,168.000000 76.219894,167.892487 
	C76.714104,167.586288 76.899788,167.324692 76.996841,167.000168 
	C76.996841,167.000168 77.000000,167.000000 77.402695,166.996307 
	C78.609520,166.960526 79.413666,166.928436 80.217804,166.896332 
z"/>
<path fill="#0AB0EF" opacity="1.000000" stroke="none" 
	d="
M86.049973,183.124588 
	C79.511124,184.526978 73.122398,184.825638 67.179993,179.902466 
	C67.004471,178.483490 67.000557,177.743317 66.998390,177.001572 
	C67.000130,177.000000 67.004089,176.995911 67.221977,176.889267 
	C67.711639,176.584839 67.896996,176.325333 67.997971,176.002045 
	C68.000000,176.000000 68.004051,175.995941 68.221970,175.889313 
	C68.711685,175.584869 68.897057,175.325333 68.998001,175.002029 
	C69.000000,175.000000 69.004013,174.995987 69.221909,174.889328 
	C69.711555,174.584839 69.896935,174.325317 69.997978,174.002045 
	C70.000000,174.000000 70.004051,173.995941 70.221924,173.889252 
	C70.711563,173.584763 70.896980,173.325241 70.998016,173.002014 
	C71.000000,173.000000 71.003983,172.996017 71.221832,172.889328 
	C71.711433,172.584885 71.896797,172.325409 71.997887,172.002106 
	C72.000000,172.000000 72.004456,171.996384 72.324799,171.971466 
	C74.149002,172.512115 75.936508,172.737488 77.101883,173.709061 
	C80.211357,176.301529 83.053391,179.214798 86.001724,182.000565 
	C86.001717,182.000565 86.000000,182.000000 86.008698,182.280869 
	C86.028252,182.749359 86.039116,182.936981 86.049973,183.124588 
z"/>
<path fill="#0AB0EF" opacity="1.000000" stroke="none" 
	d="
M104.995590,171.979431 
	C105.164154,171.983963 105.332718,171.988510 105.859741,172.216431 
	C106.415192,172.711304 106.674362,172.895187 106.995705,172.991455 
	C106.995705,172.991455 107.000282,172.999802 107.109314,173.219925 
	C107.415184,173.711960 107.674408,173.895966 107.996033,173.992065 
	C107.996033,173.992065 108.000023,174.000000 108.023163,174.299103 
	C108.364014,175.066544 108.681717,175.534882 108.999420,176.003204 
	C108.999420,176.003204 109.000000,176.000000 108.990967,176.229584 
	C108.981941,176.459152 108.970375,176.917847 108.970375,176.917847 
	C104.236259,178.536636 99.502144,180.155411 94.432686,181.445328 
	C97.730095,178.070786 101.362839,175.025101 104.995590,171.979431 
z"/>
<path fill="#0AB0EF" opacity="1.000000" stroke="none" 
	d="
M65.206612,176.990723 
	C65.860397,172.714371 66.514191,168.438004 67.441101,163.925018 
	C67.714218,163.688385 67.865761,163.865265 68.111404,164.187469 
	C68.903122,164.670975 69.449196,164.832291 69.995270,164.993607 
	C69.995270,164.993607 70.000130,165.000000 70.109055,165.219910 
	C70.415062,165.711807 70.674438,165.896149 70.996109,165.992874 
	C70.996109,165.992874 71.000000,166.000000 71.034332,166.337997 
	C71.380592,168.449463 71.692520,170.222916 72.004456,171.996384 
	C72.004456,171.996384 72.000000,172.000000 71.780457,172.109222 
	C71.289627,172.416260 71.103981,172.675461 71.003983,172.996017 
	C71.003983,172.996017 71.000000,173.000000 70.780563,173.109161 
	C70.289879,173.416229 70.104187,173.675446 70.004051,173.995941 
	C70.004051,173.995941 70.000000,174.000000 69.780548,174.109207 
	C69.289871,174.416321 69.104179,174.675507 69.004013,174.995987 
	C69.004013,174.995987 69.000000,175.000000 68.780594,175.109222 
	C68.289978,175.416336 68.104271,175.675491 68.004051,175.995941 
	C68.004051,175.995941 68.000000,176.000000 67.780624,176.109283 
	C67.290016,176.416382 67.104301,176.675491 67.004089,176.995911 
	C67.004089,176.995911 67.000130,177.000000 66.700066,177.000183 
	C66.002205,176.997147 65.604408,176.993942 65.206612,176.990723 
z"/>
<path fill="#7A9DD0" opacity="1.000000" stroke="none" 
	d="
M149.149796,144.762344 
	C145.680969,143.529343 142.466553,142.058456 139.096008,140.291977 
	C142.514938,136.442520 146.657455,140.195465 150.830994,139.139252 
	C150.626862,140.957504 150.015518,142.740982 149.149796,144.762344 
z"/>
<path fill="#7A9DD0" opacity="1.000000" stroke="none" 
	d="
M128.007019,144.964996 
	C125.710152,145.756149 123.413277,146.547318 121.029312,147.704590 
	C120.607285,147.269897 120.272346,146.469086 119.972107,145.332428 
	C121.656700,143.521561 123.201050,141.897461 124.995758,140.627029 
	C126.086479,139.854919 127.563797,139.628937 128.867447,139.157623 
	C129.103333,139.954697 129.339233,140.751785 129.040802,141.969543 
	C128.340012,143.248489 128.173523,144.106750 128.007019,144.964996 
z"/>
<path fill="#1AAEE7" opacity="1.000000" stroke="none" 
	d="
M104.997780,171.653198 
	C101.362839,175.025101 97.730095,178.070786 94.052780,181.445023 
	C93.187256,182.010681 92.366295,182.247803 91.244598,182.369171 
	C93.603340,179.091537 96.262810,175.929642 98.957481,172.429489 
	C100.750389,171.377640 102.508095,170.664062 104.635880,169.985901 
	C105.003967,170.456543 105.001968,170.891739 104.997780,171.653198 
z"/>
<path fill="#1AAEE7" opacity="1.000000" stroke="none" 
	d="
M65.212448,177.297897 
	C65.604408,176.993942 66.002205,176.997147 66.698326,177.001755 
	C67.000557,177.743317 67.004471,178.483490 67.007904,179.593643 
	C66.411041,179.177444 65.814667,178.391251 65.212448,177.297897 
z"/>
<path fill="#1AAEE7" opacity="1.000000" stroke="none" 
	d="
M80.159653,166.587845 
	C79.413666,166.928436 78.609520,166.960526 77.402954,166.994675 
	C77.620041,166.412598 78.239555,165.828461 79.017883,164.959625 
	C79.484962,165.209732 79.793228,165.744553 80.159653,166.587845 
z"/>
<path fill="#0FB1F0" opacity="1.000000" stroke="none" 
	d="
M99.457184,130.975601 
	C99.457489,131.043457 99.392235,130.976227 99.392235,130.976227 
	C99.392235,130.976227 99.456886,130.907745 99.457184,130.975601 
z"/>
<path fill="#1AAEE7" opacity="1.000000" stroke="none" 
	d="
M109.276070,176.913040 
	C108.970375,176.917847 108.981941,176.459152 108.989258,176.229858 
	C109.254814,176.024353 109.513054,176.048126 110.157379,176.131332 
	C110.222900,176.429916 109.902336,176.669083 109.276070,176.913040 
z"/>
<path fill="#1AAEE7" opacity="1.000000" stroke="none" 
	d="
M86.303230,183.153290 
	C86.039116,182.936981 86.028252,182.749359 86.008698,182.279953 
	C86.317017,182.084091 86.577728,182.255569 86.891808,182.722992 
	C86.853149,183.016220 86.704819,183.099106 86.303230,183.153290 
z"/>
<path fill="#82A4D3" opacity="1.000000" stroke="none" 
	d="
M136.907318,139.741241 
	C136.966644,141.609329 136.844437,143.224609 136.610733,146.313446 
	C135.534073,144.057190 135.004929,142.948303 134.388748,141.657028 
	C133.466248,142.738678 132.524887,143.842438 131.232880,144.987091 
	C131.321121,143.163193 131.760010,141.298416 132.186020,139.488403 
	C133.909943,139.488403 135.317856,139.488403 136.907318,139.741241 
z"/>
<path fill="#82A4D3" opacity="1.000000" stroke="none" 
	d="
M128.317566,144.996521 
	C128.173523,144.106750 128.340012,143.248489 128.780609,142.197388 
	C129.094818,142.762100 129.134933,143.519699 129.213684,144.655945 
	C129.044235,145.032410 128.836166,145.030212 128.317566,144.996521 
z"/>
<path fill="#1AAEE7" opacity="1.000000" stroke="none" 
	d="
M108.978897,175.705994 
	C108.681717,175.534882 108.364014,175.066544 108.026825,174.301514 
	C108.324356,174.472809 108.641373,174.940811 108.978897,175.705994 
z"/>
<path fill="#1AAEE7" opacity="1.000000" stroke="none" 
	d="
M107.889053,173.775726 
	C107.674408,173.895966 107.415184,173.711960 107.113434,173.222168 
	C107.327209,173.104523 107.585068,173.289551 107.889053,173.775726 
z"/>
<path fill="#1AAEE7" opacity="1.000000" stroke="none" 
	d="
M106.888512,172.775223 
	C106.674362,172.895187 106.415192,172.711304 106.112610,172.222382 
	C106.325974,172.104584 106.584076,172.289261 106.888512,172.775223 
z"/>
<path fill="#1AAEE7" opacity="1.000000" stroke="none" 
	d="
M72.324799,171.971466 
	C71.692520,170.222916 71.380592,168.449463 71.037590,166.340088 
	C72.489143,166.739090 73.971764,167.474030 75.725624,168.104523 
	C77.291153,170.128754 78.424454,172.379364 79.920723,174.355072 
	C81.767242,176.793259 83.915665,179.002823 85.967682,181.655869 
	C83.053391,179.214798 80.211357,176.301529 77.101883,173.709061 
	C75.936508,172.737488 74.149002,172.512115 72.324799,171.971466 
z"/>
<path fill="#1AAEE7" opacity="1.000000" stroke="none" 
	d="
M69.831406,164.752213 
	C69.449196,164.832291 68.903122,164.670975 68.194092,164.269455 
	C68.576607,164.189774 69.122070,164.350296 69.831406,164.752213 
z"/>
<path fill="#1AAEE7" opacity="1.000000" stroke="none" 
	d="
M70.888641,165.776550 
	C70.674438,165.896149 70.415062,165.711807 70.112602,165.221909 
	C70.325859,165.105011 70.583847,165.290421 70.888641,165.776550 
z"/>
<path fill="#1AAEE7" opacity="1.000000" stroke="none" 
	d="
M76.778885,167.108643 
	C76.899788,167.324692 76.714104,167.586288 76.219940,167.891052 
	C76.102150,167.676102 76.289093,167.416092 76.778885,167.108643 
z"/>
<path fill="#1AAEE7" opacity="1.000000" stroke="none" 
	d="
M70.221924,173.889252 
	C70.104187,173.675446 70.289879,173.416229 70.778580,173.111176 
	C70.896980,173.325241 70.711563,173.584763 70.221924,173.889252 
z"/>
<path fill="#1AAEE7" opacity="1.000000" stroke="none" 
	d="
M69.221909,174.889328 
	C69.104179,174.675507 69.289871,174.416321 69.778526,174.111252 
	C69.896935,174.325317 69.711555,174.584839 69.221909,174.889328 
z"/>
<path fill="#1AAEE7" opacity="1.000000" stroke="none" 
	d="
M68.221970,175.889313 
	C68.104271,175.675491 68.289978,175.416336 68.778587,175.111252 
	C68.897057,175.325333 68.711685,175.584869 68.221970,175.889313 
z"/>
<path fill="#1AAEE7" opacity="1.000000" stroke="none" 
	d="
M67.221977,176.889267 
	C67.104301,176.675491 67.290016,176.416382 67.778595,176.111328 
	C67.896996,176.325333 67.711639,176.584839 67.221977,176.889267 
z"/>
<path fill="#1AAEE7" opacity="1.000000" stroke="none" 
	d="
M71.221832,172.889328 
	C71.103981,172.675461 71.289627,172.416260 71.778351,172.111328 
	C71.896797,172.325409 71.711433,172.584885 71.221832,172.889328 
z"/>
</svg>